<svg width="992" height="250" viewBox="0 0 992 250" fill="none" xmlns="http://www.w3.org/2000/svg">
<g clip-path="url(#clip0_2001_3200)">
<path d="M250 0H0V250H250V0Z" fill="black" fill-opacity="0.25"/>
<path d="M62.5 62.5H187.5V187.5H62.5V62.5Z" fill="#9C9C9C" fill-opacity="0.25"/>
<path d="M187 63V187H63V63H187Z" stroke="#C8C8C8" stroke-opacity="0.5"/>
<path d="M62.5 62.5H187.5V187.5C118.465 187.5 62.5 131.535 62.5 62.5Z" fill="white" fill-opacity="0.25"/>
<path d="M187 63V186.996C118.637 186.727 63.2717 131.363 63.0029 63H187Z" stroke="#B6B6B6" stroke-opacity="0.5"/>
</g>
<rect x="0.5" y="0.5" width="249" height="249" stroke="#C8C8C8" stroke-opacity="0.5"/>
<path d="M878.859 212V37H990.609V60.75H905.359V111.75H983.109V135.25H905.359V188.25H990.609V212H878.859Z" fill="url(#paint0_linear_2001_3200)" fill-opacity="0.25"/>
<path d="M991.109 36.5V61.25H905.859V111.25H983.609V135.75H905.859V187.75H991.109V212.5H878.359V36.5H991.109Z" stroke="black" stroke-opacity="0.25"/>
<path d="M719.707 212V37H747.707L783.957 116L820.207 37H848.207V212H822.957V87.5L794.457 150H773.457L744.957 87.75V212H719.707Z" fill="url(#paint1_linear_2001_3200)" fill-opacity="0.25"/>
<path d="M748.027 36.5L748.161 36.791L783.957 114.801L819.753 36.791L819.887 36.5H848.707V212.5H822.457V89.8008L794.912 150.207L794.778 150.5H773.136L773.002 150.208L745.457 90.0439V212.5H719.207V36.5H748.027Z" stroke="black" stroke-opacity="0.25"/>
<path d="M579.055 212V37H690.805V60.75H605.555V111.75H683.305V135.25H605.555V188.25H690.805V212H579.055Z" fill="url(#paint2_linear_2001_3200)" fill-opacity="0.25"/>
<path d="M691.305 36.5V61.25H606.055V111.25H683.805V135.75H606.055V187.75H691.305V212.5H578.555V36.5H691.305Z" stroke="black" stroke-opacity="0.25"/>
<path d="M419.406 212V37H445.906V109.5H522.406V37H548.906V212H522.406V133.75H445.906V212H419.406Z" fill="url(#paint3_linear_2001_3200)" fill-opacity="0.25"/>
<path d="M446.406 36.5V109H521.906V36.5H549.406V212.5H521.906V134.25H446.406V212.5H418.906V36.5H446.406Z" stroke="black" stroke-opacity="0.25"/>
<path d="M321 212V60.75H274V37H394.5V60.75H347.5V212H321Z" fill="url(#paint4_linear_2001_3200)" fill-opacity="0.25"/>
<path d="M395 36.5V61.25H348V212.5H320.5V61.25H273.5V36.5H395Z" stroke="black" stroke-opacity="0.25"/>
<defs>
<linearGradient id="paint0_linear_2001_3200" x1="934.734" y1="37" x2="934.734" y2="212" gradientUnits="userSpaceOnUse">
<stop/>
<stop offset="1" stop-color="white"/>
</linearGradient>
<linearGradient id="paint1_linear_2001_3200" x1="783.957" y1="37" x2="783.957" y2="212" gradientUnits="userSpaceOnUse">
<stop/>
<stop offset="1" stop-color="white"/>
</linearGradient>
<linearGradient id="paint2_linear_2001_3200" x1="634.93" y1="37" x2="634.93" y2="212" gradientUnits="userSpaceOnUse">
<stop/>
<stop offset="1" stop-color="white"/>
</linearGradient>
<linearGradient id="paint3_linear_2001_3200" x1="484.156" y1="37" x2="484.156" y2="212" gradientUnits="userSpaceOnUse">
<stop/>
<stop offset="1" stop-color="white"/>
</linearGradient>
<linearGradient id="paint4_linear_2001_3200" x1="334.25" y1="37" x2="334.25" y2="212" gradientUnits="userSpaceOnUse">
<stop/>
<stop offset="1" stop-color="white"/>
</linearGradient>
<clipPath id="clip0_2001_3200">
<rect width="250" height="250" fill="white"/>
</clipPath>
</defs>
</svg>
